<svg width="24" height="24" viewBox="0 0 24 24" fill="none" xmlns="http://www.w3.org/2000/svg">
<g clipPath="url(#clip0_32846_390045)">
<path d="M13.7837 9.47437C13.7837 9.21373 13.9528 9 14.1589 9H17.4084C17.6146 9 17.7837 9.21373 17.7837 9.47437C17.7837 9.73501 17.6146 9.94874 17.4084 9.94874H14.1589C13.9528 9.94874 13.7837 9.73501 13.7837 9.47437ZM13.7837 12.0026C13.7837 11.742 13.9528 11.5282 14.1589 11.5282H17.4084C17.6146 11.5282 17.7837 11.742 17.7837 12.0026C17.7837 12.2632 17.6146 12.477 17.4084 12.477H14.1589C13.9528 12.477 13.7837 12.2632 13.7837 12.0026ZM13.7837 14.5256C13.7837 14.265 13.9528 14.0513 14.1589 14.0513H17.4084C17.6146 14.0513 17.7837 14.265 17.7837 14.5256C17.7837 14.7863 17.6146 15 17.4084 15H14.1589C13.9528 15 13.7837 14.7915 13.7837 14.5256Z" fill="#0B8938"/>
<path d="M18.6391 5.33187L15.0968 5.33773C15.0734 5.33773 15.0558 5.33773 15.0323 5.3436V4L4 5.26146V18.7033L15.0323 20V18.6212C15.0558 18.6212 15.0734 18.6271 15.0968 18.6271L18.6391 18.6212C18.915 18.6212 19.179 18.5156 19.3786 18.322C19.5722 18.1283 19.6837 17.8702 19.6837 17.5944V6.35864C19.6837 6.08288 19.5722 5.82472 19.3786 5.6311C19.179 5.44335 18.915 5.33187 18.6391 5.33187ZM7.13364 12.7833C7.32142 12.7833 7.5092 12.7539 7.68525 12.6953L7.78501 13.2409C7.66178 13.2996 7.39184 13.3641 7.03388 13.3524C6.05388 13.3289 5.56095 12.6777 5.56095 11.8328C5.56095 10.8236 6.2358 10.2428 7.09843 10.2193C7.43879 10.2076 7.70286 10.278 7.82022 10.3366L7.68525 10.8882C7.5092 10.8177 7.32142 10.7767 7.12777 10.7825C6.61136 10.7884 6.21819 11.1228 6.21819 11.7858C6.22406 12.3902 6.55855 12.7715 7.13364 12.7833ZM8.97039 13.3993C8.62417 13.3876 8.27794 13.2879 8.11363 13.1881L8.25447 12.6131C8.4892 12.7363 8.7474 12.8067 9.01734 12.8185C9.34009 12.8243 9.51027 12.6894 9.51027 12.484C9.51027 12.2846 9.36357 12.1731 8.99387 12.0381C8.4892 11.8563 8.16058 11.5688 8.16058 11.1228C8.16058 10.5948 8.58896 10.1782 9.31075 10.1606C9.66285 10.1489 9.92692 10.2193 10.1147 10.3014L9.95626 10.8882C9.75087 10.7943 9.52788 10.7415 9.29902 10.7473C8.99974 10.7532 8.85303 10.894 8.85303 11.0583C8.85303 11.2578 9.02321 11.3458 9.42225 11.4925C9.97973 11.6978 10.2438 11.9912 10.2438 12.443C10.2379 12.9769 9.82716 13.4228 8.97039 13.3993ZM12.3916 13.4404L11.4996 13.4169L10.4492 10.1841L11.259 10.1665L11.6639 11.5394C11.7754 11.9267 11.881 12.3022 11.9632 12.7129H11.9808C12.063 12.3198 12.1745 11.9267 12.2859 11.5512L12.7261 10.1313L13.5652 10.1078L12.3916 13.4404ZM19.0851 17.5886C19.0851 17.7059 19.0382 17.8174 18.956 17.8995C18.8739 17.9817 18.7565 18.0286 18.6391 18.0286L15.0968 18.0345C15.0734 18.0345 15.0558 18.0345 15.0323 18.0286V5.93033C15.0558 5.92446 15.0734 5.92446 15.0968 5.92446L18.6391 5.91859C18.7565 5.91859 18.8739 5.96553 18.956 6.04767C19.0382 6.12981 19.0851 6.24129 19.0851 6.35864V17.5886Z" fill="#0B8938"/>
</g>
<defs>
<clipPath id="clip0_32846_390045">
<rect width="16" height="16" fill="white" transform="translate(4 4)"/>
</clipPath>
</defs>
</svg>
