<svg width="18" height="17" viewBox="0 0 18 17" fill="none" xmlns="http://www.w3.org/2000/svg">
<path d="M2.11343 16.3451C1.78944 16.3451 1.50594 16.2236 1.26294 15.9806C1.01994 15.7376 0.898438 15.4541 0.898438 15.1301V5.75439C0.898438 5.55189 0.942312 5.34602 1.03006 5.13677C1.11781 4.92752 1.26969 4.76215 1.48569 4.64065L8.37067 0.509656C8.46517 0.442156 8.56642 0.398281 8.67442 0.378031C8.78242 0.357781 8.89042 0.347656 8.99842 0.347656C9.10642 0.347656 9.21442 0.357781 9.32242 0.378031C9.43042 0.398281 9.53167 0.442156 9.62617 0.509656L16.5112 4.64065C16.7407 4.76215 16.8959 4.92752 16.9769 5.13677C17.0579 5.34602 17.0984 5.55189 17.0984 5.75439V15.1301C17.0984 15.4541 16.9769 15.7376 16.7339 15.9806C16.4909 16.2236 16.2074 16.3451 15.8834 16.3451H2.11343ZM8.99842 9.48039C9.05242 9.48039 9.10304 9.47364 9.15029 9.46014C9.19754 9.44664 9.24817 9.42639 9.30217 9.39939L15.8024 5.59239L9.30217 1.68415C9.24817 1.65715 9.19754 1.6369 9.15029 1.6234C9.10304 1.6099 9.05242 1.60315 8.99842 1.60315C8.94442 1.60315 8.8938 1.6099 8.84654 1.6234C8.79929 1.6369 8.74867 1.65715 8.69467 1.68415L2.19443 5.59239L8.69467 9.39939C8.74867 9.42639 8.79929 9.44664 8.84654 9.46014C8.8938 9.47364 8.94442 9.48039 8.99842 9.48039Z" fill="#FFA82E"/>
<path d="M4.14062 0.305664V6.74135L8.44061 9.6472C8.77893 9.87583 9.22228 9.8758 9.56057 9.64711L13.8606 6.74029V0.305664H4.14062Z" fill="#E9E9E9"/>
<path d="M6.83594 4.66113H11.1559" stroke="#6E6D7A" stroke-width="0.7" stroke-linecap="round"/>
</svg>
