<svg width="12" height="14" viewBox="0 0 12 14" fill="none" xmlns="http://www.w3.org/2000/svg">
<path d="M5.55179 8.28301V11.133C5.55179 11.2775 5.5977 11.3969 5.68952 11.4913C5.78135 11.5858 5.89747 11.633 6.0379 11.633C6.17834 11.633 6.29446 11.5858 6.38628 11.4913C6.4781 11.3969 6.52402 11.2775 6.52402 11.133V8.28301L7.51244 9.29967C7.54485 9.33301 7.62587 9.3219 7.7555 9.26634C7.88513 9.21079 8.00665 9.16079 8.12008 9.11634C8.23351 9.0719 8.31182 9.05245 8.35503 9.05801C8.39824 9.06356 8.34423 9.14412 8.193 9.29967C8.29022 9.19967 8.33613 9.08301 8.33073 8.94967C8.32533 8.81634 8.27402 8.69967 8.17679 8.59967L6.34577 6.76634C6.29176 6.71079 6.23775 6.6719 6.18374 6.64967C6.12973 6.62745 6.07031 6.61634 6.0055 6.61634C5.94068 6.61634 5.88127 6.62745 5.82726 6.64967C5.77324 6.6719 5.71923 6.71079 5.66522 6.76634L3.8504 8.63301C3.75318 8.73301 3.70457 8.84967 3.70457 8.98301C3.70457 9.11634 3.75318 9.23301 3.8504 9.33301C3.94763 9.43301 4.06105 9.48301 4.19068 9.48301C4.32031 9.48301 4.43374 9.43301 4.53096 9.33301L5.55179 8.28301ZM1.79253 13.6663C1.53328 13.6663 1.30642 13.5663 1.11198 13.3663C0.917535 13.1663 0.820312 12.933 0.820312 12.6663V1.33301C0.820312 1.06634 0.917535 0.833008 1.11198 0.633008C1.30642 0.433008 1.53328 0.333008 1.79253 0.333008H7.23698C7.36661 0.333008 7.49354 0.360786 7.61777 0.416341C7.74199 0.471897 7.84732 0.544119 7.93374 0.633008L10.899 3.68301C10.9854 3.7719 11.0557 3.88023 11.1097 4.00801C11.1637 4.13579 11.1907 4.26634 11.1907 4.39967V12.6663C11.1907 12.933 11.0935 13.1663 10.899 13.3663C10.7046 13.5663 10.4777 13.6663 10.2185 13.6663H1.79253ZM7.15596 3.93301C7.15596 4.07745 7.20187 4.1969 7.29369 4.29134C7.38551 4.38579 7.50164 4.43301 7.64207 4.43301H10.2185L7.15596 1.33301V3.93301Z" fill="#02B89D"/>
</svg>
