<svg width="12" height="16" viewBox="0 0 12 16" fill="none" xmlns="http://www.w3.org/2000/svg">
<g clip-path="url(#clip0_6902_434391)">
<path d="M7.16626 14.1674C7.10143 14.419 6.95671 14.6427 6.75385 14.805C6.55098 14.9673 6.30093 15.0594 6.04126 15.0674C5.79438 15.0794 5.54999 15.0134 5.34269 14.8788C5.13539 14.7442 4.97571 14.5478 4.88626 14.3174C4.87541 14.2677 4.84623 14.2238 4.80454 14.1947C4.76285 14.1655 4.71169 14.153 4.66126 14.1599H2.63626C2.59212 14.1552 2.54766 14.1651 2.50971 14.1881C2.47177 14.2112 2.44245 14.2461 2.42626 14.2874C2.33124 14.4653 2.17833 14.6053 1.99284 14.6844C1.80735 14.7636 1.6004 14.7769 1.40626 14.7224C1.21485 14.6694 1.04632 14.5547 0.926939 14.3959C0.80756 14.2372 0.744036 14.0435 0.74626 13.8449C0.748656 13.6459 0.816942 13.4533 0.940431 13.2972C1.06392 13.1412 1.23565 13.0305 1.42876 12.9824C1.62056 12.9313 1.82407 12.9473 2.00551 13.0278C2.18695 13.1083 2.33542 13.2484 2.42626 13.4249C2.44267 13.4702 2.47367 13.5088 2.51439 13.5346C2.55512 13.5604 2.60327 13.5719 2.65127 13.5674H4.67626C4.72079 13.5743 4.76629 13.5643 4.80378 13.5393C4.84128 13.5143 4.86803 13.4762 4.87876 13.4324C4.93652 13.2752 5.02735 13.1323 5.14509 13.0133C5.26284 12.8943 5.40475 12.8019 5.56126 12.7424C5.61376 12.7424 5.68876 12.6674 5.68876 12.6224C5.68876 11.9924 5.68876 11.3624 5.68876 10.7099H1.27126C1.09909 10.7247 0.925772 10.7018 0.763426 10.6426C0.601079 10.5834 0.453635 10.4894 0.331445 10.3672C0.209256 10.245 0.115275 10.0976 0.0560778 9.93522C-0.00311988 9.77287 -0.0260943 9.59954 -0.0112364 9.42738V3.89988C-0.0260943 3.72772 -0.00311988 3.55438 0.0560778 3.39204C0.115275 3.22969 0.209256 3.08226 0.331445 2.96007C0.453635 2.83788 0.601079 2.7439 0.763426 2.6847C0.925772 2.6255 1.09909 2.60253 1.27126 2.61738H5.53126C5.59104 2.62055 5.65062 2.60843 5.70442 2.58218C5.75822 2.55594 5.80446 2.51643 5.83877 2.46738L6.92626 1.10239C7.03326 0.960047 7.17293 0.845516 7.33349 0.7685C7.49405 0.691484 7.67078 0.654225 7.84876 0.659873H10.5488C10.7403 0.647893 10.9323 0.676681 11.1119 0.74433C11.2915 0.811979 11.4548 0.916962 11.5909 1.05234C11.727 1.18771 11.8328 1.35041 11.9014 1.52969C11.97 1.70897 11.9997 1.90074 11.9888 2.09238V9.44239C11.9999 9.61139 11.9747 9.78081 11.9149 9.93925C11.855 10.0977 11.7619 10.2414 11.6418 10.3608C11.5217 10.4803 11.3773 10.5725 11.2186 10.6314C11.0598 10.6903 10.8902 10.7145 10.7213 10.7024H6.30376C6.30078 10.7523 6.30078 10.8024 6.30376 10.8524C6.30376 11.4149 6.30376 11.9774 6.30376 12.5399C6.29709 12.5855 6.30815 12.6319 6.33466 12.6695C6.36117 12.7072 6.40111 12.7333 6.44626 12.7424C6.60268 12.7984 6.74453 12.8888 6.86135 13.0069C6.97818 13.125 7.067 13.2679 7.12126 13.4249C7.13344 13.4678 7.16051 13.505 7.19763 13.5297C7.23474 13.5544 7.27947 13.5651 7.32376 13.5599H9.34876C9.39409 13.5664 9.44027 13.5573 9.47977 13.5341C9.51927 13.511 9.54976 13.4751 9.56626 13.4324C9.66157 13.2435 9.82141 13.095 10.0168 13.0138C10.2122 12.9327 10.4302 12.9242 10.6313 12.9899C10.8295 13.0541 10.9995 13.1846 11.1129 13.3594C11.2262 13.5342 11.276 13.7427 11.2538 13.9499C11.2281 14.1594 11.1301 14.3534 10.9768 14.4985C10.8235 14.6436 10.6244 14.7308 10.4138 14.7449C10.244 14.7555 10.0747 14.7173 9.92591 14.635C9.77709 14.5526 9.65491 14.4294 9.57376 14.2799C9.53626 14.2274 9.46876 14.1599 9.41626 14.1599L7.16626 14.1674ZM11.3963 3.22488H1.27126C1.17899 3.21223 1.08504 3.22124 0.996851 3.25118C0.908661 3.28113 0.828654 3.3312 0.763162 3.39741C0.697671 3.46363 0.648496 3.54419 0.619528 3.6327C0.590559 3.72122 0.582593 3.81526 0.596262 3.90739V9.43488C0.582007 9.52845 0.590091 9.62405 0.619848 9.71389C0.649605 9.80373 0.70019 9.88528 0.767477 9.95184C0.834764 10.0184 0.916839 10.0681 1.007 10.0969C1.09716 10.1256 1.19286 10.1327 1.28626 10.1174H10.6913C11.1713 10.1174 11.3963 9.89988 11.3963 9.42738V3.20238V3.22488ZM6.49876 2.60988H11.3963C11.3963 2.40738 11.3963 2.20489 11.3963 2.00989C11.3963 1.81097 11.3172 1.6202 11.1766 1.47954C11.0359 1.33889 10.8452 1.25989 10.6463 1.25989H7.79626C7.66929 1.27311 7.55045 1.32857 7.45876 1.41738C7.13626 1.80738 6.83626 2.19738 6.49876 2.60988V2.60988ZM6.59626 13.8599C6.59437 13.7026 6.53156 13.5522 6.42106 13.4403C6.31056 13.3284 6.16097 13.2638 6.00376 13.2599C5.8459 13.2579 5.69361 13.3181 5.57989 13.4276C5.46617 13.5371 5.40019 13.6871 5.39626 13.8449C5.39526 13.9243 5.41006 14.0031 5.43977 14.0768C5.46948 14.1505 5.51351 14.2175 5.56933 14.274C5.62514 14.3305 5.69162 14.3754 5.76491 14.406C5.83819 14.4366 5.91683 14.4524 5.99626 14.4524C6.15101 14.4507 6.29928 14.3899 6.41079 14.2826C6.52229 14.1753 6.58863 14.0295 6.59626 13.8749V13.8599ZM1.65376 13.5524C1.61473 13.5504 1.57569 13.5562 1.53895 13.5695C1.5022 13.5828 1.46851 13.6034 1.43984 13.63C1.41118 13.6565 1.38813 13.6886 1.37206 13.7242C1.35598 13.7598 1.34721 13.7983 1.34626 13.8374C1.34526 13.8768 1.35204 13.916 1.3662 13.9528C1.38036 13.9896 1.40163 14.0232 1.4288 14.0518C1.45596 14.0803 1.48849 14.1032 1.52451 14.1192C1.56054 14.1352 1.59936 14.1439 1.63876 14.1449C1.71778 14.145 1.79381 14.1147 1.85106 14.0602C1.90832 14.0057 1.94241 13.9313 1.94626 13.8524C1.94431 13.7761 1.91263 13.7036 1.85798 13.6504C1.80334 13.5971 1.73006 13.5674 1.65376 13.5674V13.5524ZM10.3538 13.5524C10.3145 13.5493 10.275 13.5543 10.2378 13.5673C10.2006 13.5802 10.1664 13.6007 10.1375 13.6275C10.1086 13.6543 10.0856 13.6867 10.0699 13.7229C10.0542 13.759 10.0461 13.798 10.0463 13.8374C10.0453 13.8768 10.052 13.916 10.0662 13.9528C10.0804 13.9896 10.1016 14.0232 10.1288 14.0518C10.156 14.0803 10.1885 14.1032 10.2245 14.1192C10.2605 14.1352 10.2994 14.1439 10.3388 14.1449C10.3778 14.1459 10.4166 14.1391 10.453 14.1248C10.4894 14.1106 10.5225 14.0892 10.5505 14.0619C10.5784 14.0347 10.6006 14.0021 10.6158 13.9661C10.631 13.9301 10.6388 13.8914 10.6388 13.8524C10.6388 13.7768 10.6087 13.7043 10.5553 13.6509C10.5018 13.5974 10.4293 13.5674 10.3538 13.5674V13.5524Z" fill="#0F82E2"/>
<path d="M11.4006 3.20185V9.40434C11.4006 9.87684 11.1756 10.0944 10.6956 10.0944H1.29059C1.19719 10.1096 1.1015 10.1026 1.01133 10.0738C0.921171 10.045 0.839096 9.99536 0.771809 9.9288C0.704521 9.86225 0.653937 9.7807 0.62418 9.69086C0.594423 9.60101 0.586339 9.50541 0.600594 9.41185V3.88435C0.586925 3.79223 0.594891 3.69819 0.62386 3.60967C0.652828 3.52116 0.702003 3.4406 0.767494 3.37438C0.832986 3.30816 0.912993 3.25809 1.00118 3.22815C1.08937 3.1982 1.18332 3.1892 1.27559 3.20185H11.4006V3.20185ZM7.9506 7.09435H8.44559C8.55382 7.10033 8.66207 7.08278 8.76287 7.0429C8.86367 7.00302 8.95464 6.94175 9.02949 6.86334C9.10434 6.78493 9.1613 6.69123 9.19645 6.58868C9.2316 6.48614 9.24409 6.37719 9.23309 6.26935C9.24249 6.16533 9.23006 6.0605 9.19661 5.96157C9.16315 5.86264 9.1094 5.77179 9.03879 5.69483C8.96819 5.61787 8.88229 5.55649 8.7866 5.51465C8.69091 5.47282 8.58753 5.45143 8.48309 5.45185H7.3881V7.83684H7.98059L7.9506 7.09435ZM4.3431 5.45936H2.71559V7.83684H3.30059V6.95185H4.33559V6.35934H3.31559V6.05935H4.3431V5.45936ZM4.96559 5.45936V6.05184H5.55059V7.83684H6.1581V6.03685H6.9081V5.45185L4.96559 5.45936Z" fill="#0F82E2"/>
<path d="M6.5 2.60941C6.8375 2.19691 7.1375 1.80693 7.46 1.43193C7.55169 1.34312 7.67053 1.28764 7.7975 1.27441H10.6475C10.8464 1.27441 11.0372 1.35344 11.1778 1.49409C11.3185 1.63475 11.3975 1.8255 11.3975 2.02441C11.3975 2.21941 11.3975 2.42193 11.3975 2.62443L6.5 2.60941Z" fill="white"/>
<path d="M6.59849 13.8745C6.59462 14.0317 6.52993 14.1813 6.41803 14.2918C6.30613 14.4023 6.15574 14.4651 5.99849 14.467C5.91906 14.467 5.84042 14.4512 5.76713 14.4206C5.69384 14.39 5.62737 14.3451 5.57155 14.2886C5.51574 14.2321 5.4717 14.1651 5.44199 14.0914C5.41229 14.0177 5.39749 13.9389 5.39848 13.8595C5.40242 13.7016 5.4684 13.5517 5.58212 13.4422C5.69583 13.3327 5.84812 13.2724 6.00598 13.2745C6.1632 13.2783 6.31279 13.343 6.42329 13.4549C6.53379 13.5668 6.5966 13.7172 6.59849 13.8745V13.8745Z" fill="white"/>
<path d="M1.65916 13.5668C1.69821 13.5668 1.73686 13.5746 1.77285 13.5898C1.80883 13.6049 1.84142 13.6271 1.86868 13.6551C1.89594 13.6831 1.91733 13.7162 1.93158 13.7526C1.94583 13.7889 1.95266 13.8278 1.95166 13.8668C1.94781 13.9457 1.91371 14.0201 1.85646 14.0746C1.7992 14.1291 1.72318 14.1594 1.64416 14.1593C1.60476 14.1583 1.56594 14.1496 1.52991 14.1336C1.49389 14.1176 1.46136 14.0947 1.43419 14.0661C1.40703 14.0376 1.38576 14.004 1.37159 13.9672C1.35743 13.9304 1.35066 13.8912 1.35166 13.8518C1.35261 13.8127 1.36138 13.7742 1.37745 13.7386C1.39353 13.703 1.41657 13.6709 1.44524 13.6444C1.4739 13.6178 1.5076 13.5972 1.54434 13.5839C1.58108 13.5706 1.62013 13.5648 1.65916 13.5668V13.5668Z" fill="white"/>
<path d="M10.3545 13.5673C10.3932 13.5672 10.4315 13.5751 10.4671 13.5903C10.5027 13.6056 10.5348 13.6279 10.5615 13.656C10.5882 13.6841 10.6088 13.7173 10.6222 13.7536C10.6357 13.7899 10.6415 13.8286 10.6395 13.8673C10.6395 13.9063 10.6317 13.945 10.6165 13.981C10.6014 14.017 10.5791 14.0495 10.5512 14.0768C10.5232 14.1041 10.4901 14.1255 10.4537 14.1397C10.4174 14.154 10.3785 14.1608 10.3395 14.1598C10.3001 14.1588 10.2613 14.1501 10.2252 14.1341C10.1892 14.1181 10.1567 14.0952 10.1295 14.0666C10.1024 14.0381 10.0811 14.0045 10.0669 13.9677C10.0528 13.9309 10.046 13.8917 10.047 13.8523C10.0468 13.8129 10.0549 13.7739 10.0706 13.7378C10.0863 13.7016 10.1093 13.6692 10.1382 13.6424C10.1671 13.6156 10.2013 13.5951 10.2385 13.5822C10.2757 13.5693 10.3152 13.5642 10.3545 13.5673V13.5673Z" fill="white"/>
<path d="M7.95188 7.11716V7.86716H7.35938V5.45215H8.45438C8.55882 5.45173 8.66219 5.47312 8.75788 5.51496C8.85357 5.5568 8.93948 5.61818 9.01008 5.69514C9.08069 5.77209 9.13444 5.86294 9.1679 5.96187C9.20136 6.06081 9.21378 6.16564 9.20438 6.26965C9.21539 6.37749 9.20287 6.48644 9.16772 6.58899C9.13257 6.69153 9.07562 6.78523 9.00077 6.86365C8.92592 6.94206 8.83497 7.00332 8.73417 7.0432C8.63336 7.08308 8.52511 7.10064 8.41688 7.09466L7.95188 7.11716ZM7.95188 6.51716H8.37938C8.40763 6.51623 8.4354 6.50959 8.46103 6.49766C8.48666 6.48574 8.50961 6.46875 8.52851 6.44774C8.54742 6.42674 8.56189 6.40213 8.57106 6.3754C8.58023 6.34866 8.58391 6.32034 8.58188 6.29215C8.58402 6.26368 8.58011 6.23507 8.57041 6.20822C8.56072 6.18137 8.54545 6.15687 8.52562 6.13633C8.50579 6.11579 8.48185 6.09969 8.45535 6.08906C8.42886 6.07843 8.40041 6.07351 8.37188 6.07464H7.95188V6.51716Z" fill="white"/>
<path d="M4.34626 5.45215V6.03715H3.31875V6.33714H4.33875V6.95215H3.30375V7.85216H2.71875V5.45215H4.34626Z" fill="white"/>
<path d="M4.96781 5.45215H6.88782V6.02964H6.13782V7.82966H5.53031V6.04465H4.94531L4.96781 5.45215Z" fill="white"/>
<path d="M7.96094 6.5169V6.07438H8.38094C8.40946 6.07324 8.43791 6.07817 8.46441 6.0888C8.49091 6.09943 8.51486 6.11552 8.53469 6.13606C8.55452 6.1566 8.56978 6.1811 8.57948 6.20795C8.58917 6.23481 8.59307 6.26342 8.59093 6.29189C8.59297 6.32008 8.58929 6.34839 8.58012 6.37513C8.57095 6.40187 8.55648 6.42647 8.53757 6.44748C8.51866 6.46849 8.49571 6.48547 8.47008 6.4974C8.44446 6.50932 8.41669 6.51596 8.38844 6.5169H7.96094Z" fill="#0F82E2"/>
</g>
<defs>
<clipPath id="clip0_6902_434391">
<rect width="12" height="14.4" fill="white" transform="translate(0 0.666992)"/>
</clipPath>
</defs>
</svg>
