<svg width="12" height="12" viewBox="0 0 12 12" fill="none" xmlns="http://www.w3.org/2000/svg">
<g clip-path="url(#clip0_6902_434349)">
<path d="M0.907182 9.80773L1.43637 10.717C1.54633 10.9084 1.7044 11.0588 1.88996 11.1682L3.77992 7.91406H0C0 8.12599 0.0549807 8.33792 0.164942 8.52933L0.907182 9.80773Z" fill="#0066DA"/>
<path d="M5.99977 4.08614L4.10981 0.832031C3.92425 0.941413 3.76618 1.09181 3.65622 1.28323L0.164942 7.29923C0.0570031 7.48652 0.000143715 7.69862 0 7.9145H3.77993L5.99977 4.08614Z" fill="#00AC47"/>
<path d="M10.109 11.1682C10.2945 11.0588 10.4526 10.9084 10.5626 10.717L10.7825 10.341L11.834 8.52933C11.944 8.33792 11.999 8.12599 11.999 7.91406H8.21875L9.02312 9.48643L10.109 11.1682Z" fill="#EA4335"/>
<path d="M5.99934 4.08615L7.8893 0.832041C7.70374 0.72266 7.49069 0.667969 7.27077 0.667969H4.72791C4.50799 0.667969 4.29493 0.729496 4.10938 0.832041L5.99934 4.08615Z" fill="#00832D"/>
<path d="M8.22028 7.91406H3.78059L1.89062 11.1682C2.07618 11.2776 2.28924 11.3322 2.50916 11.3322H9.49171C9.71163 11.3322 9.92468 11.2707 10.1102 11.1682L8.22028 7.91406Z" fill="#2684FC"/>
<path d="M10.0892 4.29123L8.34355 1.28323C8.23359 1.09181 8.07552 0.941413 7.88996 0.832031L6 4.08614L8.21985 7.9145H11.9929C11.9929 7.70257 11.9379 7.49065 11.828 7.29923L10.0892 4.29123Z" fill="#FFBA00"/>
</g>
<defs>
<clipPath id="clip0_6902_434349">
<rect width="12" height="10.6667" fill="white" transform="translate(0 0.666992)"/>
</clipPath>
</defs>
</svg>
