<svg width="24" height="24" viewBox="0 0 24 24" fill="none" xmlns="http://www.w3.org/2000/svg">
<path d="M4 4V20L10.5116 13.4884L12.5582 15.5349L15.907 12.186L20 15.907V4H4Z" fill="#F4F4F4"/>
<path d="M8.09311 9.95331C8.91512 9.95331 9.58149 9.28694 9.58149 8.46494C9.58149 7.64293 8.91512 6.97656 8.09311 6.97656C7.2711 6.97656 6.60474 7.64293 6.60474 8.46494C6.60474 9.28694 7.2711 9.95331 8.09311 9.95331Z" fill="#FDB663"/>
<path d="M20 15.9084V20.0015H16.8372V19.8154L12.5581 15.5363L15.907 12.1875L20 15.9084Z" fill="#70993F"/>
<path d="M16.8372 19.8139V19.9999H4L10.5116 13.4883L12.5582 15.5348L16.8372 19.8139Z" fill="#80AF52"/>
</svg>
