<svg width="201" height="50" viewBox="0 0 201 50" fill="none" xmlns="http://www.w3.org/2000/svg">
<path d="M133.735 35.4202V37.6137L131.504 35.3772V33.1836L133.735 35.4202ZM89.1282 20.4094V22.4094H93.87V35.0331H96.0585V22.3664H100.843V20.3664C100.843 20.4094 89.1282 20.4094 89.1282 20.4094ZM113.652 20.4094V26.9686H105.993V20.4094H103.804V35.0331H105.993V28.9256H113.652V34.9901H115.841V20.4094H113.652ZM147.21 20.4094V28.7965C147.21 30.1514 146.888 31.1836 146.201 31.9578C145.557 32.6675 144.485 33.0331 142.983 33.0331C142.339 33.0546 141.695 32.9686 141.073 32.7535C140.58 32.5815 140.151 32.3019 139.786 31.9148C139.464 31.5277 139.207 31.0546 139.078 30.56C138.906 29.9578 138.82 29.3342 138.842 28.7105V20.4094H136.653V28.7965C136.653 30.7965 137.211 32.3234 138.284 33.3987C139.357 34.4739 140.88 34.9901 142.875 34.9901C144.978 34.9901 146.587 34.517 147.66 33.5062C148.733 32.4954 149.291 30.9901 149.291 28.904V20.4094H147.21ZM155.105 33.1406V28.4309H162.636V26.56H155.105V22.2374H164.16V20.3664H152.874V34.9901H164.16V33.1191L155.105 33.1406ZM179.115 29.1191C178.922 28.689 178.643 28.3019 178.278 28.0008C177.913 27.6997 177.505 27.4847 177.033 27.3557C176.561 27.2051 176.089 27.0761 175.596 26.9901L173.493 26.6675C172.807 26.5815 172.12 26.4739 171.455 26.3019L170.661 26.0653C170.425 25.9578 170.21 25.8288 170.017 25.6567C169.824 25.5062 169.674 25.2911 169.588 25.0546C169.459 24.775 169.417 24.4739 169.438 24.1729C169.417 23.6997 169.545 23.2481 169.803 22.861C170.06 22.5385 170.361 22.2804 170.725 22.1084C171.112 21.9363 171.498 21.8288 171.927 21.7858L173.214 21.6997C173.686 21.6997 174.158 21.7428 174.609 21.8503C175.038 21.9578 175.467 22.1299 175.853 22.3664C176.218 22.603 176.519 22.9256 176.776 23.2911C177.033 23.7213 177.184 24.1944 177.205 24.689H179.158C179.136 23.9578 178.943 23.2266 178.6 22.5815C178.278 22.0008 177.849 21.5062 177.312 21.0976C176.755 20.689 176.132 20.3879 175.489 20.2159C174.759 20.0223 174.008 19.9148 173.257 19.9363C172.528 19.9363 171.777 20.0223 171.069 20.1944C170.425 20.3449 169.803 20.5815 169.245 20.904C168.709 21.2481 168.279 21.7213 167.958 22.2589C167.614 22.9041 167.443 23.6137 167.486 24.3449C167.486 24.818 167.55 25.2696 167.722 25.6997C167.872 26.0868 168.086 26.4309 168.365 26.732C168.644 27.0331 168.987 27.2911 169.374 27.4847C169.781 27.6998 170.232 27.8718 170.682 28.0008C171.455 28.2374 172.249 28.4094 173.043 28.4739L175.446 28.7965C175.725 28.8395 176.004 28.9041 176.282 28.9901C176.54 29.0546 176.776 29.2051 176.969 29.3987C177.184 29.5707 177.355 29.7858 177.441 30.0438C177.57 30.3449 177.613 30.6675 177.591 31.0116C177.613 31.4847 177.484 31.9578 177.227 32.3664C176.991 32.7105 176.669 32.9686 176.261 33.1191C175.853 33.2911 175.424 33.3987 174.974 33.4847L173.665 33.5707C173.107 33.5707 172.571 33.5277 172.034 33.4202C171.519 33.2911 171.026 33.0976 170.554 32.861C170.103 32.603 169.717 32.2589 169.438 31.8288C169.095 31.3557 168.902 30.7965 168.837 30.2374H166.842C166.928 31.0546 167.185 31.8503 167.593 32.56C167.979 33.1836 168.494 33.7428 169.116 34.1514C169.717 34.603 170.425 34.9256 171.155 35.1191C171.927 35.3342 172.721 35.4417 173.515 35.4417C174.244 35.4417 174.952 35.3772 175.66 35.2481C176.325 35.0976 176.969 34.861 177.57 34.5385C178.128 34.1944 178.621 33.6998 178.964 33.1406C179.329 32.4739 179.522 31.6997 179.479 30.9471C179.458 30.3019 179.351 29.6782 179.115 29.1191ZM181.625 20.4094V22.4094H186.367V35.0331H188.555V22.3664H193.34V20.3664C193.383 20.4094 181.625 20.4094 181.625 20.4094Z" fill="#606060"/>
<path d="M90.0506 35.0338H87.7763L86.7464 32.9478L82.6697 24.8833L78.5931 32.9478H82.6697L83.7425 30.8188L84.7724 32.9048V32.9478L83.7425 35.0338H75.3103L76.3402 32.9478L82.6697 20.4102L88.9992 32.9478L90.0506 35.0338Z" fill="#0CC6AA"/>
<path d="M131.504 32.9469V27.7211C131.504 24.9254 129.23 22.6459 126.441 22.6459C123.652 22.6459 121.377 24.9254 121.377 27.7211C121.377 30.5168 123.652 32.7964 126.441 32.7964C127.213 32.8179 127.964 32.6244 128.629 32.2588L130.26 33.8932C126.827 36.0007 122.343 34.9469 120.219 31.5061C118.094 28.0652 119.167 23.5706 122.6 21.4416C126.033 19.3125 130.517 20.3878 132.642 23.8287C133.35 24.9684 133.714 26.3018 133.736 27.6566C133.757 29.6566 132.942 31.5706 131.504 32.9469ZM75.8475 25.4416C75.8475 26.0652 75.7402 26.6889 75.4828 27.291C75.2682 27.8287 74.9249 28.3233 74.4958 28.7319C74.0881 29.1405 73.5946 29.4416 73.0582 29.6566C72.5004 29.8717 71.8996 29.9792 71.2988 29.9792H67.5869V28.1082H71.1272C71.4919 28.1082 71.8352 28.0437 72.1571 27.9147C72.4575 27.8071 72.7364 27.6136 72.9509 27.3555C73.187 27.0975 73.3801 26.7964 73.5088 26.4738C73.6375 26.1082 73.7019 25.7426 73.7019 25.3555C73.7234 24.9469 73.659 24.5383 73.5517 24.1512C73.4444 23.8071 73.2728 23.4631 73.0797 23.1405C72.8651 22.8609 72.6076 22.6243 72.2858 22.4523C71.9425 22.2803 71.5563 22.1942 71.1701 22.2157H65.3984V34.9684H63.167V20.4093H71.3847C72.0927 20.3878 72.8007 20.5383 73.4659 20.8394C74.0237 21.119 74.4958 21.5276 74.9034 22.0007C75.2682 22.4953 75.5471 23.0545 75.6973 23.6351L75.8475 25.4416Z" fill="#606060"/>
<path d="M197.31 18.4719C195.336 18.4719 193.727 16.859 193.727 14.8805C193.727 12.902 195.336 11.2891 197.31 11.2891C199.284 11.2891 200.893 12.902 200.893 14.8805C200.893 16.859 199.284 18.4719 197.31 18.4719ZM197.31 12.0202C195.743 12.0202 194.456 13.3106 194.456 14.8805C194.456 16.4504 195.743 17.7407 197.31 17.7407C198.876 17.7407 200.163 16.4504 200.163 14.8805C200.163 13.3106 198.876 12.0202 197.31 12.0202Z" fill="#606060"/>
<path d="M197.116 14.581C197.267 14.6025 197.417 14.5595 197.545 14.4735C197.717 14.2584 197.717 13.9574 197.545 13.7423C197.417 13.6563 197.267 13.6133 197.116 13.6348H196.709V14.6025H197.116V14.581ZM196.709 15.2477V16.667H195.743V12.9251H197.224C197.61 12.9036 197.975 12.9896 198.296 13.1832C198.532 13.3767 198.661 13.6563 198.64 13.9789C198.64 14.1939 198.597 14.409 198.468 14.581C198.339 14.7531 198.146 14.8821 197.932 14.9251C198.06 14.9681 198.189 15.0326 198.296 15.1402C198.425 15.2907 198.532 15.4412 198.618 15.6348L199.133 16.6885H198.103L197.653 15.7638C197.588 15.6133 197.503 15.4842 197.374 15.3767C197.267 15.3122 197.138 15.2692 196.988 15.2692H196.709" fill="#606060"/>
<path d="M15.0617 39.956C14.0748 40.4506 13.1951 41.1173 12.4441 41.913L11.4142 42.9452C6.9299 38.4291 4.39809 32.3216 4.39809 25.956C4.37663 19.6119 6.88699 13.5044 11.3928 9.03125L14.0533 11.6979C14.2679 11.913 14.5039 12.1065 14.7828 12.2571C7.23028 19.7624 7.16592 31.9775 14.6541 39.5689C14.8043 39.6979 14.933 39.827 15.0617 39.956Z" fill="url(#paint0_linear_11597_279863)"/>
<path d="M28.3438 38.7329H19.5682C18.002 38.8189 16.4786 39.2275 15.1054 39.9802C7.40268 32.6468 7.10229 20.4748 14.3973 12.7544C14.5475 12.6038 14.6977 12.4318 14.8694 12.2812C15.5774 12.7114 16.8648 13.292 18.7744 13.292H28.3867C21.3491 13.2705 15.6632 18.9694 15.6632 26.0232C15.6203 33.0124 21.3276 38.7329 28.3438 38.7329Z" fill="url(#paint1_linear_11597_279863)"/>
<path d="M15.0617 39.956C14.0748 40.4506 13.1951 41.1173 12.4441 41.913L11.4142 42.9452C6.9299 38.4291 4.39809 32.3216 4.39809 25.956C4.37663 19.6119 6.88699 13.5044 11.3928 9.03125L14.0533 11.6979C14.2679 11.913 14.5039 12.1065 14.7828 12.2571C7.23028 19.7624 7.16592 31.9775 14.6541 39.5689C14.8043 39.6979 14.933 39.827 15.0617 39.956Z" fill="url(#paint2_linear_11597_279863)"/>
<path d="M28.3438 38.7329H19.5682C18.002 38.8189 16.4786 39.2275 15.1054 39.9802C7.40268 32.6468 7.10229 20.4748 14.3973 12.7544C14.5475 12.6038 14.6977 12.4318 14.8694 12.2812C15.5774 12.7114 16.8648 13.292 18.7744 13.292H28.3867C21.3491 13.2705 15.6632 18.9694 15.6632 26.0232C15.6203 33.0124 21.3276 38.7329 28.3438 38.7329Z" fill="url(#paint3_linear_11597_279863)"/>
<path d="M47.6105 25.9798C47.6319 36.625 39.028 45.2701 28.4073 45.2916C28.3859 45.2916 28.3859 45.2916 28.3644 45.2916H22.3138C22.3138 45.2916 14.5896 45.0121 12.3153 46.969L12.0793 47.2056L18.5805 40.6465C21.2195 38.0013 27.6778 38.7325 28.1498 38.7325H28.3859C35.4234 38.7325 41.1093 33.0121 41.1093 25.9798C41.1093 22.2379 39.4786 18.6895 36.6464 16.2809C36.6035 16.2379 36.5606 16.1949 36.5177 16.1949C36.4748 16.1518 36.4104 16.1088 36.3675 16.0658C30.9391 11.5497 25.1675 6.66797 11.8433 6.66797H28.3429C38.9851 6.66797 47.589 15.3131 47.6105 25.9798Z" fill="url(#paint4_linear_11597_279863)"/>
<path d="M23.7304 38.7305C23.2583 38.7305 20.1472 39.0961 18.5809 40.6444L9.269 49.9993H0L8.04601 41.9348C8.81843 41.1606 9.71958 40.4939 10.6851 39.9778C12.0583 39.2251 13.5817 38.795 15.148 38.7305H23.7304Z" fill="url(#paint5_linear_11597_279863)"/>
<path d="M36.3253 16.0658C34.0725 14.2379 31.2617 13.2486 28.3437 13.2271H18.7314C16.8218 13.2271 15.5345 12.711 14.8264 12.2164C14.5689 12.0658 14.3115 11.8723 14.1184 11.6572L11.3934 8.99055L9.09766 6.66797H11.844C25.1897 6.66797 30.9399 11.5497 36.3253 16.0658Z" fill="url(#paint6_linear_11597_279863)"/>
<path d="M28.3428 2.00021C23.2148 1.9787 18.237 3.61311 14.1174 6.66688H28.3428C38.985 6.66688 47.6103 15.312 47.6103 25.9787C47.6103 36.6454 38.985 45.2905 28.3428 45.2905H22.2922C22.2922 45.2905 18.0224 45.14 14.9113 45.8497C25.8539 53.2905 40.7229 50.4303 48.1467 39.4841C55.5705 28.5378 52.7168 13.6131 41.7957 6.17225C37.8263 3.44107 33.1489 2.00021 28.3428 2.00021Z" fill="url(#paint7_linear_11597_279863)"/>
<path d="M50.2292 12.1935C48.2767 8.7957 45.4445 5.95699 42.0544 4L54.22 0L50.2292 12.1935Z" fill="url(#paint8_linear_11597_279863)"/>
<path d="M50.2292 12.1935C48.2767 8.7957 45.4445 5.95699 42.0544 4L54.22 0L50.2292 12.1935Z" fill="url(#paint9_linear_11597_279863)"/>
<defs>
<linearGradient id="paint0_linear_11597_279863" x1="4.44263" y1="38.9255" x2="19.1475" y2="13.5137" gradientUnits="userSpaceOnUse">
<stop stop-color="#0D4773"/>
<stop offset="0.01" stop-color="#12507D"/>
<stop offset="0.05" stop-color="#296E9A"/>
<stop offset="0.1" stop-color="#3B89B6"/>
<stop offset="0.15" stop-color="#4A9FCA"/>
<stop offset="0.22" stop-color="#55B0DA"/>
<stop offset="0.3" stop-color="#5DBCE7"/>
<stop offset="0.41" stop-color="#62C2EE"/>
<stop offset="0.71" stop-color="#63C4EF"/>
</linearGradient>
<linearGradient id="paint1_linear_11597_279863" x1="13.465" y1="13.0278" x2="28.3176" y2="38.6926" gradientUnits="userSpaceOnUse">
<stop offset="0.13" stop-color="#0D4773"/>
<stop offset="0.51" stop-color="#0D4875"/>
<stop offset="0.64" stop-color="#12507D"/>
<stop offset="0.73" stop-color="#1E5B87"/>
<stop offset="0.81" stop-color="#286C98"/>
<stop offset="0.88" stop-color="#3780AC"/>
<stop offset="0.94" stop-color="#489CC7"/>
<stop offset="0.99" stop-color="#5DBCE7"/>
<stop offset="1" stop-color="#63C4EF"/>
</linearGradient>
<linearGradient id="paint2_linear_11597_279863" x1="4.44263" y1="38.9255" x2="19.1475" y2="13.5137" gradientUnits="userSpaceOnUse">
<stop stop-color="#0D4773"/>
<stop offset="0.01" stop-color="#12507D"/>
<stop offset="0.05" stop-color="#296E9A"/>
<stop offset="0.1" stop-color="#3B89B6"/>
<stop offset="0.15" stop-color="#4A9FCA"/>
<stop offset="0.22" stop-color="#55B0DA"/>
<stop offset="0.3" stop-color="#5DBCE7"/>
<stop offset="0.41" stop-color="#62C2EE"/>
<stop offset="0.71" stop-color="#63C4EF"/>
</linearGradient>
<linearGradient id="paint3_linear_11597_279863" x1="13.465" y1="13.0278" x2="28.3176" y2="38.6926" gradientUnits="userSpaceOnUse">
<stop offset="0.13" stop-color="#0D4773"/>
<stop offset="0.51" stop-color="#0D4875"/>
<stop offset="0.64" stop-color="#12507D"/>
<stop offset="0.73" stop-color="#1E5B87"/>
<stop offset="0.81" stop-color="#286C98"/>
<stop offset="0.88" stop-color="#3780AC"/>
<stop offset="0.94" stop-color="#489CC7"/>
<stop offset="0.99" stop-color="#5DBCE7"/>
<stop offset="1" stop-color="#63C4EF"/>
</linearGradient>
<linearGradient id="paint4_linear_11597_279863" x1="13.0874" y1="47.7984" x2="36.038" y2="8.13563" gradientUnits="userSpaceOnUse">
<stop stop-color="#01585C"/>
<stop offset="0.21" stop-color="#00A5AD"/>
<stop offset="0.36" stop-color="#19B3B4"/>
<stop offset="0.68" stop-color="#73C9BE"/>
<stop offset="0.79" stop-color="#7ECCC5"/>
<stop offset="0.99" stop-color="#9ED8D7"/>
</linearGradient>
<linearGradient id="paint5_linear_11597_279863" x1="6.46123" y1="53.7277" x2="17.2978" y2="35.0021" gradientUnits="userSpaceOnUse">
<stop stop-color="#00A5AD"/>
<stop offset="0.19" stop-color="#19B3B4"/>
<stop offset="0.59" stop-color="#73C9BE"/>
<stop offset="0.71" stop-color="#7ECCC5"/>
<stop offset="0.94" stop-color="#9ED8D7"/>
</linearGradient>
<linearGradient id="paint6_linear_11597_279863" x1="24.5712" y1="8.13008" x2="20.3298" y2="15.4571" gradientUnits="userSpaceOnUse">
<stop stop-color="#409F9E"/>
<stop offset="0.65" stop-color="#60C4B9"/>
<stop offset="1" stop-color="#73C9BE"/>
</linearGradient>
<linearGradient id="paint7_linear_11597_279863" x1="41.3547" y1="46.1583" x2="17.3229" y2="4.63377" gradientUnits="userSpaceOnUse">
<stop offset="0.31" stop-color="#0D4773"/>
<stop offset="0.61" stop-color="#0D4875"/>
<stop offset="0.71" stop-color="#12507D"/>
<stop offset="0.79" stop-color="#1E5B87"/>
<stop offset="0.85" stop-color="#286C98"/>
<stop offset="0.9" stop-color="#3780AC"/>
<stop offset="0.95" stop-color="#489CC7"/>
<stop offset="0.99" stop-color="#5DBCE7"/>
<stop offset="1" stop-color="#63C4EF"/>
</linearGradient>
<linearGradient id="paint8_linear_11597_279863" x1="48.1382" y1="16.033" x2="48.1383" y2="3.7813" gradientUnits="userSpaceOnUse">
<stop stop-color="#359092"/>
<stop offset="0.49" stop-color="#73C9BE"/>
<stop offset="1" stop-color="#8CD2D6"/>
</linearGradient>
<linearGradient id="paint9_linear_11597_279863" x1="48.1382" y1="16.033" x2="48.1383" y2="3.7813" gradientUnits="userSpaceOnUse">
<stop stop-color="#359092"/>
<stop offset="0.49" stop-color="#73C9BE"/>
<stop offset="1" stop-color="#8CD2D6"/>
</linearGradient>
</defs>
</svg>
