<svg width="24" height="24" viewBox="0 0 24 24" fill="none" xmlns="http://www.w3.org/2000/svg">
<g clipPath="url(#clip0_32846_390046)">
<path d="M4 18.42V5.62L5.56995 5.34L8.77997 4.77002L12.3199 4.14999C12.5799 4.14999 12.83 4.05 13.08 4V5.54001H19.29C19.385 5.53488 19.4799 5.55068 19.5682 5.58627C19.6564 5.62187 19.7358 5.67641 19.8007 5.74603C19.8655 5.81566 19.9143 5.89866 19.9435 5.9892C19.9728 6.07974 19.9818 6.17561 19.97 6.27002V17.67C19.9752 17.7366 19.9752 17.8034 19.97 17.87C19.9414 18.0226 19.8591 18.16 19.738 18.2572C19.617 18.3544 19.4652 18.405 19.31 18.4H13.08V19.96L10.85 19.57L7.84998 19.03L4.84998 18.5L4 18.42ZM13.11 15.34H15.11C15.22 15.34 15.25 15.34 15.25 15.49V16.64C15.25 16.76 15.25 16.79 15.11 16.79H13.11V17.88H19.49V6.13H13.11V7.27002H15.24V8.71002H13.11V9.26001H15.24V10.7H13.11V11.29H15.24V12.73H13.24C13.24 12.73 13.11 12.73 13.11 12.8C13.11 12.87 13.11 13.13 13.11 13.32H15.11C15.21 13.32 15.24 13.32 15.24 13.46V14.62C15.24 14.75 15.24 14.78 15.09 14.78H13.09L13.11 15.34ZM6.48999 9.39001L6.56 9.57001C6.89 10.35 7.21 11.14 7.56 11.93C7.57713 11.9677 7.58594 12.0086 7.58594 12.05C7.58594 12.0914 7.57713 12.1323 7.56 12.17C7.19 12.95 6.82996 13.74 6.45996 14.53L6.38995 14.7C6.71995 14.7 7.01996 14.7 7.32996 14.76C7.37216 14.7661 7.41512 14.7561 7.45032 14.7321C7.48551 14.708 7.51036 14.6716 7.51996 14.63C7.63996 14.32 7.76996 14.01 7.89996 13.7C8.02996 13.39 8.12995 13.13 8.25995 12.82C8.50995 13.48 8.75995 14.11 9.00995 14.74C9.00995 14.81 9.05996 14.87 9.14996 14.87L10.15 14.93H10.27L10.1899 14.76L8.93994 12.15C8.91537 12.1074 8.90247 12.0592 8.90247 12.01C8.90247 11.9609 8.91537 11.9126 8.93994 11.87L10.14 9.33002L10.21 9.16L9.10999 9.23001C9.10999 9.23001 9.02996 9.28001 9.01996 9.32001L8.23999 11.22C8.04999 10.69 7.84997 10.16 7.65997 9.62C7.55997 9.33 7.55996 9.33 7.26996 9.34L6.48999 9.39001Z" fill="#1E6F43"/>
<path d="M6.48993 9.39017L7.28992 9.34015C7.57992 9.34015 7.57993 9.34015 7.67993 9.62015C7.86993 10.1601 8.06989 10.6902 8.25989 11.2202L9.03992 9.32016C9.03992 9.32016 9.09988 9.23016 9.12988 9.23016L10.2299 9.16016L10.1599 9.33017L8.9599 11.8701C8.93532 11.9127 8.92242 11.961 8.92242 12.0102C8.92242 12.0593 8.93532 12.1076 8.9599 12.1501L10.2099 14.7602L10.2899 14.9302H10.1699L9.16992 14.8701C9.07992 14.8701 9.05991 14.8102 9.02991 14.7402C8.77991 14.1102 8.52991 13.4802 8.27991 12.8202C8.14991 13.1302 8.02992 13.4202 7.91992 13.7002C7.80992 13.9802 7.65992 14.3202 7.53992 14.6302C7.53032 14.6717 7.50547 14.7081 7.47028 14.7322C7.43508 14.7563 7.39212 14.7663 7.34991 14.7602C7.03991 14.7602 6.73991 14.7602 6.40991 14.7002L6.47992 14.5302C6.84992 13.7402 7.2099 12.9502 7.5799 12.1702C7.59702 12.1325 7.6059 12.0916 7.6059 12.0502C7.6059 12.0088 7.59702 11.9679 7.5799 11.9302C7.2399 11.1402 6.9199 10.3502 6.5799 9.57016L6.48993 9.39017Z" fill="white"/>
<path d="M18.3301 7.28125V8.70126H15.8201V7.28125H18.3301Z" fill="#1E6F43"/>
<path d="M18.3301 9.28125V10.6913H15.8201V9.28125H18.3301Z" fill="#1E6F43"/>
<path d="M15.8201 11.2891H18.3301V12.7091H15.8201V11.2891Z" fill="#1E6F43"/>
<path d="M18.3301 14.7716H15.8201V13.3516H18.3301V14.7716Z" fill="#1E6F43"/>
<path d="M18.34 16.7798H15.8101V15.4698C15.8101 15.3798 15.8101 15.3398 15.9301 15.3398H18.23C18.23 15.3398 18.33 15.3899 18.33 15.4199C18.34 15.8699 18.34 16.3198 18.34 16.7798Z" fill="#1E6F43"/>
</g>
<defs>
<clipPath id="clip0_32846_390046">
<rect width="16" height="16" fill="white" transform="translate(4 4)"/>
</clipPath>
</defs>
</svg>
